HIERARCHY
ROOT pelvis
{
	OFFSET 0.000000 0.000000 0.000000
	CHANNELS 6 Xposition Yposition Zposition Xrotation Yrotation Zrotation
	JOINT l_hip
	{
		OFFSET 0.195211 -0.245059 -0.022011
		CHANNELS 3 Xrotation Yrotation Zrotation
		JOINT l_knee
		{
			OFFSET 0.083896 -0.996307 -0.018298
			CHANNELS 3 Xrotation Yrotation Zrotation
			JOINT l_ankle
			{
				OFFSET -0.031606 -1.048662 -0.119000
				CHANNELS 3 Xrotation Yrotation Zrotation
				JOINT l_foot
				{
					OFFSET 0.063841 -0.149483 0.312863
					CHANNELS 3 Xrotation Yrotation Zrotation
					End Site
					{
						OFFSET 0.000000 0.000000 0.000000
					}
				}
			}
		}
	}
	JOINT r_hip
	{
		OFFSET -0.188785 -0.243354 -0.013119
		CHANNELS 3 Xrotation Yrotation Zrotation
		JOINT r_knee
		{
			OFFSET -0.098896 -1.013926 -0.025127
			CHANNELS 3 Xrotation Yrotation Zrotation
			JOINT r_ankle
			{
				OFFSET 0.038376 -1.049454 -0.114596
				CHANNELS 3 Xrotation Yrotation Zrotation
				JOINT r_foot
				{
					OFFSET -0.060300 -0.126955 0.322518
					CHANNELS 3 Xrotation Yrotation Zrotation
					End Site
					{
						OFFSET 0.000000 0.000000 0.000000
					}
				}
			}
		}
	}
	JOINT spine1
	{
		OFFSET -0.006861 0.282462 -0.060688
		CHANNELS 3 Xrotation Yrotation Zrotation
		JOINT spine2
		{
			OFFSET 0.009796 0.349212 -0.004686
			CHANNELS 3 Xrotation Yrotation Zrotation
			JOINT spine3
			{
				OFFSET 0.005545 0.134239 0.076232
				CHANNELS 3 Xrotation Yrotation Zrotation
				JOINT neck
				{
					OFFSET -0.005369 0.569656 -0.136135
					CHANNELS 3 Xrotation Yrotation Zrotation
					JOINT head
					{
						OFFSET 0.009621 0.170484 0.137338
						CHANNELS 3 Xrotation Yrotation Zrotation
						End Site
						{
							OFFSET 0.000000 0.000000 0.000000
						}
					}
				}
				JOINT l_collar
				{
					OFFSET 0.205981 0.322192 -0.100872
					CHANNELS 3 Xrotation Yrotation Zrotation
					JOINT l_shoulder
					{
						OFFSET 0.233388 0.086823 -0.019950
						CHANNELS 3 Xrotation Yrotation Zrotation
						JOINT l_elbow
						{
							OFFSET 0.687295 -0.032736 -0.075278
							CHANNELS 3 Xrotation Yrotation Zrotation
							JOINT l_wrist
							{
								OFFSET 0.651109 0.024639 0.000120
								CHANNELS 3 Xrotation Yrotation Zrotation
								JOINT l_hand
								{
									OFFSET 0.217934 -0.026487 -0.036124
									CHANNELS 3 Xrotation Yrotation Zrotation
									End Site
									{
										OFFSET 0.000000 0.000000 0.000000
									}
								}
							}
						}
					}
				}
				JOINT r_collar
				{
					OFFSET -0.210726 0.316244 -0.114374
					CHANNELS 3 Xrotation Yrotation Zrotation
					JOINT r_shoulder
					{
						OFFSET -0.244017 0.089684 -0.026814
						CHANNELS 3 Xrotation Yrotation Zrotation
						JOINT r_elbow
						{
							OFFSET -0.672913 -0.035979 -0.055153
							CHANNELS 3 Xrotation Yrotation Zrotation
							JOINT r_wrist
							{
								OFFSET -0.670689 0.023586 -0.009661
								CHANNELS 3 Xrotation Yrotation Zrotation
								JOINT r_hand
								{
									OFFSET -0.219937 -0.019827 -0.028502
									CHANNELS 3 Xrotation Yrotation Zrotation
									End Site
									{
										OFFSET 0.000000 0.000000 0.000000
									}
								}
							}
						}
					}
				}
			}
		}
	}
}
MOTION
Frames: 8
Frame Time: 0.016667
0.000000 0.000000 0.000000 0.000000 0.000000 0.000000 0.446113 11.470531 26.702485 3.988998 -5.284706 -3.519980 0.000000 0.000000 0.000000 0.000000 0.000000 0.000000 -4.721498 -8.519200 -26.037884 9.938811 4.601953 0.649569 0.000000 0.000000 0.000000 0.000000 0.000000 0.000000 6.273741 -0.099438 0.388411 2.949676 -0.700828 0.712112 2.156701 -1.902316 0.529418 2.083713 4.591278 3.994087 15.019069 0.435863 -0.708112 6.211806 6.735926 -26.077544 -2.882327 -12.763082 -53.462906 9.434189 -22.156859 3.116177 0.000000 0.000000 0.000000 0.000000 0.000000 0.000000 2.982704 -3.370108 26.608787 2.023219 16.004516 50.671175 -3.039806 21.867739 -5.615994 0.000000 0.000000 0.000000 0.000000 0.000000 0.000000 
0.000000 0.000000 0.000000 0.000000 0.000000 0.000000 0.517838 11.468672 26.601962 3.864060 -5.300724 -3.465337 0.000000 0.000000 0.000000 0.000000 0.000000 0.000000 -4.629311 -8.496654 -26.051556 9.828588 4.701440 0.632867 0.000000 0.000000 0.000000 0.000000 0.000000 0.000000 6.095991 -0.129123 0.362634 2.875321 -0.660260 0.705442 2.125409 -1.902475 0.471797 2.118146 4.801811 4.162828 15.764881 0.385804 -0.808396 6.266839 6.602154 -26.159791 -2.805260 -12.737964 -53.241193 8.837472 -22.084672 2.734162 0.000000 0.000000 0.000000 0.000000 0.000000 0.000000 2.960929 -3.233828 26.732713 2.067882 16.058671 50.594587 -4.439221 22.240255 -4.942563 0.000000 0.000000 0.000000 0.000000 0.000000 0.000000 
0.000000 0.000000 0.000000 0.000000 0.000000 0.000000 0.563412 11.437156 26.519526 3.759041 -5.295488 -3.417575 0.000000 0.000000 0.000000 0.000000 0.000000 0.000000 -4.569034 -8.475965 -26.052860 9.741444 4.772624 0.612128 0.000000 0.000000 0.000000 0.000000 0.000000 0.000000 5.921141 -0.142411 0.339193 2.794492 -0.637175 0.703807 2.097290 -1.902507 0.426816 2.121219 4.974106 4.311782 16.482804 0.340397 -0.875581 6.327784 6.472772 -26.237619 -2.725234 -12.689573 -53.074357 8.412632 -22.000390 2.509681 0.000000 0.000000 0.000000 0.000000 0.000000 0.000000 2.952326 -3.100114 26.857835 2.136210 16.075910 50.506490 -5.275571 22.423982 -4.570847 0.000000 0.000000 0.000000 0.000000 0.000000 0.000000 
0.000000 0.000000 0.000000 0.000000 0.000000 0.000000 0.544290 11.387277 26.480255 3.726049 -5.287841 -3.386352 0.000000 0.000000 0.000000 0.000000 0.000000 0.000000 -4.582244 -8.446328 -26.047041 9.740210 4.803124 0.596905 0.000000 0.000000 0.000000 0.000000 0.000000 0.000000 5.841956 -0.148419 0.322329 2.723009 -0.615273 0.700789 2.074506 -1.893637 0.403595 2.062565 5.093409 4.418367 16.921592 0.323101 -0.900934 6.362137 6.394473 -26.276298 -2.671393 -12.639747 -53.003127 8.215672 -21.973037 2.460214 0.000000 0.000000 0.000000 0.000000 0.000000 0.000000 2.943741 -3.002432 26.923707 2.181819 16.084206 50.463018 -5.593840 22.514899 -4.460619 0.000000 0.000000 0.000000 0.000000 0.000000 0.000000 
0.000000 0.000000 0.000000 0.000000 0.000000 0.000000 0.487557 11.346271 26.479501 3.750093 -5.286810 -3.373756 0.000000 0.000000 0.000000 0.000000 0.000000 0.000000 -4.640136 -8.413432 -26.040267 9.813606 4.793794 0.589825 0.000000 0.000000 0.000000 0.000000 0.000000 0.000000 5.865847 -0.146579 0.310953 2.675468 -0.591930 0.691570 2.065241 -1.878983 0.400863 1.986756 5.175260 4.477669 17.011878 0.358843 -0.898218 6.355556 6.394574 -26.272271 -2.663044 -12.610677 -53.009365 8.186140 -21.987202 2.508274 0.000000 0.000000 0.000000 0.000000 0.000000 0.000000 2.927952 -2.975920 26.921134 2.178304 16.119396 50.489306 -5.558556 22.572482 -4.505097 0.000000 0.000000 0.000000 0.000000 0.000000 0.000000 
0.000000 0.000000 0.000000 0.000000 0.000000 0.000000 0.436179 11.310481 26.482639 3.775284 -5.290768 -3.364918 0.000000 0.000000 0.000000 0.000000 0.000000 0.000000 -4.682342 -8.393195 -26.034815 9.879872 4.773670 0.585466 0.000000 0.000000 0.000000 0.000000 0.000000 0.000000 5.890847 -0.139471 0.299130 2.639341 -0.573868 0.681150 2.067529 -1.868025 0.400597 1.933190 5.254572 4.530860 17.029681 0.417548 -0.889634 6.341136 6.422856 -26.262457 -2.670698 -12.592759 -53.023330 8.183386 -21.989497 2.553639 0.000000 0.000000 0.000000 0.000000 0.000000 0.000000 2.912573 -2.989416 26.907442 2.161548 16.161845 50.525529 -5.458836 22.605263 -4.568439 0.000000 0.000000 0.000000 0.000000 0.000000 0.000000 
0.000000 0.000000 0.000000 0.000000 0.000000 0.000000 0.382834 11.268206 26.490717 3.795697 -5.307779 -3.356200 0.000000 0.000000 0.000000 0.000000 0.000000 0.000000 -4.686517 -8.400710 -26.026985 9.909765 4.746450 0.586822 0.000000 0.000000 0.000000 0.000000 0.000000 0.000000 5.895901 -0.131086 0.286895 2.610467 -0.568637 0.676602 2.074431 -1.864626 0.400536 1.896486 5.314867 4.580685 17.029809 0.467596 -0.875394 6.336304 6.464800 -26.255684 -2.673934 -12.578413 -53.029887 8.202451 -22.001144 2.589435 0.000000 0.000000 0.000000 0.000000 0.000000 0.000000 2.900975 -3.032155 26.895571 2.155272 16.190871 50.554743 -5.354957 22.644054 -4.620770 0.000000 0.000000 0.000000 0.000000 0.000000 0.000000 
0.000000 0.000000 0.000000 0.000000 0.000000 0.000000 0.312647 11.216156 26.508839 3.820342 -5.333964 -3.348889 0.000000 0.000000 0.000000 0.000000 0.000000 0.000000 -4.675231 -8.425287 -26.012240 9.924338 4.706183 0.591119 0.000000 0.000000 0.000000 0.000000 0.000000 0.000000 5.902979 -0.119981 0.273835 2.581594 -0.573625 0.677117 2.078749 -1.863729 0.406115 1.862143 5.353758 4.624549 16.983621 0.515989 -0.846372 6.332924 6.508471 -26.249756 -2.674288 -12.568545 -53.036507 8.237707 -22.020217 2.626990 0.000000 0.000000 0.000000 0.000000 0.000000 0.000000 2.894241 -3.085316 26.878936 2.159287 16.202629 50.582641 -5.236257 22.687112 -4.677320 0.000000 0.000000 0.000000 0.000000 0.000000 0.000000 
